<svg xmlns="http://www.w3.org/2000/svg" aria-hidden="true" style="position:absolute;width:0;height:0;overflow:hidden">
    <defs>
        <symbol id="icon-user" viewBox="0 0 32 32">
            <path
                d="M16 1.273a14.729 14.729 0 0 0-14.444 17.6 14.725 14.725 0 0 0 11.572 11.572 14.72 14.72 0 0 0 15.118-6.262 14.729 14.729 0 0 0 2.482-8.182A14.741 14.741 0 0 0 16.001 1.274zM9.396 25.35a8.182 8.182 0 0 1 13.208 0 11.415 11.415 0 0 1-13.208 0zm2.786-10.441a3.822 3.822 0 0 1 2.357-3.527 3.812 3.812 0 0 1 4.161.828 3.815 3.815 0 0 1 .828 4.161 3.819 3.819 0 0 1-7.345-1.461zM25 23.083a11.397 11.397 0 0 0-3.954-3.194 7.094 7.094 0 0 0 1.497-7.717 7.09 7.09 0 1 0-11.587 7.717 11.391 11.391 0 0 0-3.955 3.194 11.455 11.455 0 1 1 17.986 0h.014z" />
        </symbol>
        <symbol id="icon-burger-menu" viewBox="0 0 40 32">
            <path
                d="M38.75 16a2.25 2.25 0 0 1-2.25 2.25h-33a2.25 2.25 0 1 1 0-4.5h33A2.25 2.25 0 0 1 38.75 16zM3.5 6.25h33a2.25 2.25 0 1 0 0-4.5h-33a2.25 2.25 0 1 0 0 4.5zm33 19.5h-33a2.25 2.25 0 1 0 0 4.5h33a2.25 2.25 0 1 0 0-4.5z" />
        </symbol>
        <symbol id="icon-calvin" viewBox="0 0 196 32">
            <path
                d="M16.122 28.661c-6.813 0-12.628-6.179-12.628-12.919 0-6.715 5.694-13.017 12.579-13.017 4.526 0 7.785 2.19 10.438 5.621h3.333c-.998-1.801-2.068-3.455-3.698-4.745-2.798-2.263-6.424-3.6-10.024-3.6C7.484.001.453 7.13.453 15.719c0 8.613 7.129 15.669 15.718 15.669 3.504 0 6.935-1.289 9.684-3.455 1.728-1.387 2.944-3.187 4.112-5.037h-3.333c-2.629 3.431-5.986 5.766-10.512 5.766zm34.55-16.423c-2.092-2.701-4.939-4.404-8.467-4.404-6.326 0-11.533 5.135-11.533 11.461 0 6.325 5.232 11.508 11.533 11.508 3.674 0 6.228-1.533 8.467-4.356v3.844h2.749V8.369h-2.749v3.869zM42.06 28.272c-4.843 0-8.663-4.209-8.663-8.953 0-4.721 3.796-8.954 8.663-8.954 4.841 0 8.613 4.234 8.613 8.954 0 4.744-3.796 8.953-8.613 8.953zm14.695 2.019H59.7V.631h-2.945v29.66zm14.063-3.48L63.373 8.369h-2.92l8.93 21.922h2.968l8.906-21.922h-2.871l-7.567 18.442zm11.655 3.48h2.944V8.369h-2.944v21.922zm0-24.744h2.944V.632h-2.944v4.915zm15.62 2.286c-2.774 0-4.744 1.461-6.569 3.407V8.369h-2.726v21.922h2.895V16.933c-.024-3.528 2.896-6.568 6.448-6.568 4.452 0 6.69 3.869 6.69 7.859v12.068h2.725V18.224c.001-5.693-3.331-10.39-9.463-10.39zM134.881.631l-13.382 17.008V.631h-2.895v29.66h2.895V22.14l3.796-4.72 9.659 12.87h3.675l-11.486-15.207L138.629.63h-3.749zm4.818 29.66h2.872V.631h-2.872v29.66zm26.643-16.399c-1.995-3.723-5.986-6.059-10.196-6.059-6.277 0-11.582 5.232-11.582 11.509 0 6.325 5.353 11.46 11.633 11.46 2.991 0 5.937-1.192 8.101-3.26 1.315-1.241 2.093-2.798 2.797-4.429h-3.089c-1.558 3.042-4.308 5.158-7.861 5.158-2.164 0-4.281-.876-5.886-2.36-1.656-1.507-2.386-3.358-2.703-5.547h20.221c.001-2.287-.316-4.476-1.435-6.472zm-18.687 3.942c.878-4.111 4.112-7.469 8.542-7.469 3.722 0 7.713 2.288 8.588 7.469h-17.13zm22.264 12.457h2.894V8.369h-2.894v21.922zm0-24.646h2.894V.632h-2.894v5.013zm15.621 2.188c-2.824 0-4.794 1.461-6.644 3.407V8.369h-2.774v21.922h2.92V16.933c-.024-3.552 2.969-6.568 6.545-6.568 4.429 0 6.766 3.869 6.766 7.859v12.068h2.725V18.224c0-5.693-3.384-10.39-9.538-10.39z" />
        </symbol>
        <symbol id="icon-down-arrow" viewBox="0 0 55 32">
            <path
                d="M52.711 6.997 29.854 29.854a3.425 3.425 0 0 1-2.429 1.008 3.432 3.432 0 0 1-2.429-1.008L2.139 6.997a3.436 3.436 0 0 1 4.858-4.858L27.428 22.57 47.86 2.136a3.435 3.435 0 1 1 4.857 4.858l-.006.003z" />
        </symbol>
        <symbol id="icon-g-pay" viewBox="0 0 71 32">
            <path fill="#3c4043"
                d="M33.849 23.666h-2.581V3.584h6.842c1.734 0 3.213.578 4.422 1.734 1.237 1.156 1.855 2.567 1.855 4.234 0 1.707-.618 3.118-1.855 4.261-1.196 1.143-2.675 1.707-4.422 1.707h-4.261v8.146zm0-17.609v7.003h4.315c1.022 0 1.882-.35 2.554-1.035.685-.686 1.035-1.519 1.035-2.46 0-.927-.35-1.747-1.035-2.433-.672-.712-1.519-1.062-2.554-1.062h-4.315v-.013zM51.134 9.472c1.909 0 3.414.511 4.516 1.532s1.653 2.42 1.653 4.194v8.468h-2.46v-1.909h-.108c-1.062 1.573-2.487 2.352-4.261 2.352-1.519 0-2.783-.444-3.804-1.344s-1.532-2.016-1.532-3.36c0-1.425.538-2.554 1.613-3.387 1.075-.847 2.513-1.264 4.301-1.264 1.532 0 2.796.282 3.777.847v-.591c0-.901-.35-1.653-1.062-2.285s-1.546-.941-2.5-.941c-1.438 0-2.581.605-3.414 1.828l-2.272-1.425c1.25-1.815 3.105-2.715 5.551-2.715zm-3.333 9.973c0 .672.282 1.237.86 1.68.564.444 1.237.672 2.003.672 1.089 0 2.057-.403 2.903-1.21s1.277-1.747 1.277-2.836c-.807-.632-1.922-.954-3.361-.954-1.048 0-1.922.255-2.621.753-.712.524-1.062 1.156-1.062 1.895zM71.337 9.915l-8.603 19.786h-2.661l3.199-6.922L57.6 9.915h2.809l4.086 9.866h.054l3.979-9.866h2.809z"
                style="fill:var(--color1, #3c4043)" />
            <path fill="#4285f4"
                d="M23.583 13.894c0-.841-.075-1.647-.215-2.421H12.55v4.436l6.23.001a5.339 5.339 0 0 1-2.312 3.573v2.878h3.709c2.165-2.004 3.406-4.967 3.406-8.467z"
                style="fill:var(--color2, #4285f4)" />
            <path fill="#34a853"
                d="M16.47 19.483c-1.032.696-2.362 1.104-3.917 1.104-3.004 0-5.553-2.024-6.465-4.753H2.263v2.968a11.516 11.516 0 0 0 10.291 6.342c3.11 0 5.723-1.023 7.625-2.784l-3.709-2.877z"
                style="fill:var(--color3, #34a853)" />
            <path fill="#fabb05"
                d="M5.727 13.632c0-.766.128-1.507.36-2.203V8.461H2.262c-.784 1.555-1.225 3.311-1.225 5.171s.442 3.616 1.225 5.171l3.825-2.968a6.93 6.93 0 0 1-.36-2.203z"
                style="fill:var(--color4, #fabb05)" />
            <path fill="#e94235"
                d="M12.553 6.676c1.698 0 3.218.585 4.418 1.727l3.286-3.284c-1.996-1.859-4.598-3-7.705-3A11.517 11.517 0 0 0 2.261 8.461l3.825 2.968c.913-2.729 3.461-4.753 6.466-4.753z"
                style="fill:var(--color5, #e94235)" />
        </symbol>
        <symbol id="icon-grade-star" viewBox="0 0 35 32">
            <path
                d="m17.504 0 4.874 10.495 11.487 1.392-8.475 7.878 2.226 11.355-10.112-5.626L7.392 31.12l2.226-11.355-8.475-7.878 11.487-1.392L17.504 0z" />
        </symbol>
        <symbol id="icon-green-bird" viewBox="0 0 30 32">
            <path
                d="M15.238 1.263a14.853 14.853 0 0 0-13.726 9.172A14.861 14.861 0 0 0 12.34 30.692a14.855 14.855 0 0 0 15.252-6.318 14.853 14.853 0 0 0 2.504-8.254A14.873 14.873 0 0 0 15.239 1.263zm6.523 12.238-8 8a1.135 1.135 0 0 1-.809.335 1.152 1.152 0 0 1-.809-.335l-3.429-3.429a1.144 1.144 0 0 1 1.618-1.618l2.62 2.621 7.191-7.193a1.15 1.15 0 0 1 .809-.335 1.156 1.156 0 0 1 .809.335 1.15 1.15 0 0 1 .335.809 1.152 1.152 0 0 1-.335.809z" />
        </symbol>
        <symbol id="icon-instagram" viewBox="0 0 32 32">
            <path
                d="M16.002 3.308c4.134 0 4.624.015 6.257.09a8.575 8.575 0 0 1 2.875.533c.668.258 1.274.652 1.781 1.158s.901 1.113 1.158 1.781c.341.921.521 1.894.533 2.876.074 1.633.09 2.123.09 6.257s-.015 4.624-.09 6.257a8.59 8.59 0 0 1-.533 2.876 5.129 5.129 0 0 1-2.939 2.939 8.58 8.58 0 0 1-2.875.533c-1.632.074-2.122.09-6.257.09s-4.625-.015-6.257-.09a8.586 8.586 0 0 1-2.876-.533c-.668-.258-1.274-.652-1.781-1.158s-.901-1.113-1.158-1.781a8.586 8.586 0 0 1-.533-2.876c-.074-1.633-.09-2.123-.09-6.257s.015-4.624.09-6.257A8.586 8.586 0 0 1 3.93 6.87c.258-.668.652-1.274 1.158-1.781s1.113-.901 1.781-1.158a8.586 8.586 0 0 1 2.876-.533c1.633-.074 2.123-.09 6.257-.09zm0-2.79c-4.203 0-4.732.018-6.384.093a11.368 11.368 0 0 0-3.76.72 7.583 7.583 0 0 0-2.741 1.787A7.59 7.59 0 0 0 1.329 5.86a11.373 11.373 0 0 0-.72 3.76C.535 11.27.518 11.8.518 16.002s.018 4.732.093 6.384c.026 1.285.269 2.557.72 3.76a7.587 7.587 0 0 0 1.787 2.742 7.587 7.587 0 0 0 2.742 1.787c1.204.451 2.475.694 3.76.72 1.652.074 2.179.093 6.384.093s4.732-.018 6.384-.093a11.343 11.343 0 0 0 3.76-.72 7.926 7.926 0 0 0 4.527-4.53c.451-1.204.694-2.475.72-3.76.074-1.65.091-2.18.091-6.382s-.018-4.732-.093-6.384a11.368 11.368 0 0 0-.72-3.76 7.587 7.587 0 0 0-1.787-2.742 7.587 7.587 0 0 0-2.742-1.787 11.373 11.373 0 0 0-3.76-.72c-1.65-.074-2.18-.091-6.382-.091z" />
            <path
                d="M16.005 8.054a7.95 7.95 0 1 0 0 15.903 7.95 7.95 0 0 0-.001-15.904zm0 13.112a5.159 5.159 0 0 1-4.768-3.186 5.16 5.16 0 0 1 3.762-7.038 5.161 5.161 0 1 1 1.006 10.224zM24.269 9.596a1.858 1.858 0 1 0 0-3.716 1.858 1.858 0 0 0 0 3.716z" />
        </symbol>
        <symbol id="icon-gucci" viewBox="0 0 148 32">
            <path
                d="m133.453 9.688-.275.087c-1.066-2.206-2.591-3.961-4.572-5.267-1.951-1.306-4.405-1.959-7.362-1.959-1.646 0-3.216.334-4.71 1.001a11.7 11.7 0 0 0-3.932 2.743c-1.097 1.161-1.982 2.568-2.652 4.223s-1.006 3.483-1.006 5.485c0 2.002.335 3.831 1.006 5.485s1.555 3.076 2.652 4.266c1.128 1.161 2.439 2.061 3.932 2.699s3.064.958 4.71.958c2.926 0 5.304-.435 7.133-1.306 1.86-.9 3.43-2.264 4.71-4.092l.275.087-.091 2.786a12.815 12.815 0 0 1-2.424 1.872c-.915.522-1.905.972-2.972 1.35a19.645 19.645 0 0 1-3.246.784 19.07 19.07 0 0 1-3.384.305c-2.347 0-4.587-.363-6.721-1.088s-4.009-1.741-5.624-3.047a14.927 14.927 0 0 1-3.841-4.789c-.945-1.886-1.418-3.976-1.418-6.269s.473-4.368 1.418-6.225c.945-1.886 2.225-3.497 3.841-4.832s3.49-2.351 5.624-3.047c2.134-.726 4.374-1.088 6.721-1.088 1.128 0 2.256.087 3.384.261s2.21.45 3.246.827c1.067.348 2.057.798 2.972 1.35a11.547 11.547 0 0 1 2.424 1.828l.183 4.615zM32.691 18.003c-.335.145-.655.334-.96.566s-.457.551-.457.958v5.354c-1.463 2.003-3.338 3.555-5.624 4.658s-4.817 1.654-7.591 1.654c-2.347 0-4.588-.363-6.722-1.088s-4.009-1.741-5.624-3.047a14.927 14.927 0 0 1-3.841-4.789C.927 20.383.455 18.293.455 16s.472-4.368 1.417-6.225c.945-1.886 2.225-3.497 3.841-4.832s3.49-2.351 5.624-3.047C13.471 1.17 15.711.808 18.059.808c1.128 0 2.256.087 3.384.261s2.21.45 3.247.827c1.067.348 2.058.798 2.972 1.35a11.547 11.547 0 0 1 2.424 1.828l.183 4.614-.274.087c-1.067-2.206-2.591-3.961-4.573-5.267-1.951-1.306-4.405-1.959-7.362-1.959-1.646 0-3.216.334-4.71 1.001a11.7 11.7 0 0 0-3.933 2.743C8.32 7.454 7.435 8.861 6.765 10.516s-1.006 3.483-1.006 5.485c0 1.973.32 3.787.96 5.441.671 1.654 1.555 3.076 2.652 4.266a12.59 12.59 0 0 0 3.932 2.742c1.494.639 3.079.958 4.755.958 3.17 0 5.883-.58 8.139-1.741v-8.141c0-.406-.168-.725-.503-.958a5.224 5.224 0 0 0-.915-.566l.042-.217c.152.027.427.056.823.087l1.235.087h3.933c.366-.027.716-.055 1.052-.087.335-.027.594-.055.777-.087l.049.218zm33.12-16.281c-.305.145-.61.334-.915.566s-.473.667-.503 1.306c-.028.697-.058 1.582-.091 2.655 0 1.045-.014 2.235-.042 3.57 0 1.335-.014 2.786-.042 4.353v4.876c-.028 1.886-.272 3.497-.732 4.832-.457 1.335-1.067 2.452-1.829 3.352-.732.9-1.555 1.611-2.469 2.133-.884.522-1.768.914-2.652 1.175-.854.29-1.661.464-2.423.522-.762.087-1.357.131-1.783.131a19.27 19.27 0 0 1-5.03-.653c-1.616-.406-3.033-1.074-4.252-2.003s-2.195-2.133-2.926-3.613c-.732-1.48-1.097-3.279-1.097-5.398v-9.447c0-1.393-.014-2.641-.042-3.744a71.37 71.37 0 0 0-.042-2.743c-.028-.639-.195-1.074-.503-1.306a5.224 5.224 0 0 0-.915-.566l.042-.217c.152.027.396.055.732.087.366.027.732.055 1.097.087.397 0 .778.013 1.143.04h1.646c.366-.027.747-.04 1.143-.04.397-.027.762-.055 1.097-.087.366-.027.625-.055.777-.087l.042.217a4.607 4.607 0 0 0-.96.566c-.274.232-.427.667-.458 1.306-.028.697-.058 1.611-.091 2.743v13.19c0 3.163.777 5.499 2.332 7.009s3.856 2.264 6.905 2.264c.884 0 1.89-.102 3.018-.305a8.229 8.229 0 0 0 3.155-1.393c1.006-.697 1.844-1.683 2.515-2.96.701-1.277 1.052-2.975 1.052-5.093 0-2.293-.014-4.252-.042-5.877 0-1.654-.014-3.062-.042-4.223 0-1.19-.014-2.206-.042-3.047s-.058-1.611-.091-2.307c-.028-.639-.195-1.074-.503-1.306a5.254 5.254 0 0 0-.914-.566l.042-.217c.335.058.716.116 1.143.174.427.027.823.04 1.189.04.335 0 .716-.013 1.143-.04.457-.058.854-.116 1.189-.174l.029.218zm33.18 7.966-.275.087c-1.066-2.206-2.591-3.961-4.572-5.267-1.951-1.306-4.405-1.959-7.362-1.959-1.646 0-3.216.334-4.71 1.001a11.7 11.7 0 0 0-3.932 2.743c-1.097 1.161-1.981 2.568-2.652 4.223s-1.006 3.483-1.006 5.485.335 3.831 1.006 5.485c.671 1.654 1.555 3.076 2.652 4.266 1.128 1.161 2.439 2.061 3.932 2.699s3.064.958 4.71.958c2.927 0 5.304-.435 7.133-1.306 1.86-.9 3.43-2.264 4.71-4.092l.275.087-.091 2.786c-.701.696-1.51 1.32-2.424 1.872a18.38 18.38 0 0 1-2.972 1.35 19.633 19.633 0 0 1-3.247.784 19.07 19.07 0 0 1-3.384.305c-2.347 0-4.588-.363-6.722-1.088s-4.009-1.741-5.624-3.047a14.927 14.927 0 0 1-3.841-4.789c-.945-1.886-1.418-3.976-1.418-6.269s.472-4.368 1.418-6.225c.945-1.886 2.225-3.497 3.841-4.832s3.49-2.351 5.624-3.047C82.194 1.172 84.434.81 86.782.81c1.128 0 2.256.087 3.384.261s2.21.45 3.247.827c1.067.348 2.058.798 2.972 1.35a11.573 11.573 0 0 1 2.424 1.828l.183 4.615zm48.244 20.765a9.865 9.865 0 0 0-.776-.087c-.335 0-.701-.013-1.097-.04-.397 0-.778-.013-1.144-.04h-2.744c-.365.027-.731.055-1.097.087a9.04 9.04 0 0 0-.776.087l-.042-.174c.305-.145.61-.334.915-.566s.472-.667.503-1.306c.028-.697.041-1.422.041-2.177.028-.755.042-1.611.042-2.568V8.302c0-.958-.014-1.799-.042-2.525 0-.755-.013-1.48-.041-2.177-.028-.639-.196-1.074-.503-1.306a4.18 4.18 0 0 0-.915-.609l.042-.174c.183.058.441.101.776.131.366 0 .732.013 1.097.04.396.027.777.04 1.144.04h1.6c.366-.027.747-.04 1.144-.04.396-.027.762-.055 1.097-.087.365-.027.624-.055.776-.087l.042.174a3.82 3.82 0 0 0-.961.609c-.274.232-.426.667-.457 1.306-.027.697-.058 1.422-.091 2.177v20.46c.028.755.058 1.48.091 2.177.028.639.181 1.074.457 1.306.306.232.626.421.961.566l-.042.17z" />
        </symbol>
        <symbol id="icon-left-arrow" viewBox="0 0 40 32">
            <path
                d="m15.408.908-13.5 13.5a2.248 2.248 0 0 0 0 3.188l13.5 13.5a2.253 2.253 0 1 0 3.188-3.188L8.938 18.25h27.563a2.25 2.25 0 1 0 0-4.5H8.938l9.66-9.658A2.253 2.253 0 1 0 15.41.904l-.002.004z" />
        </symbol>
        <symbol id="icon-loop" viewBox="0 0 32 32">
            <path
                d="m30.249 27.933-6.476-6.479a12.562 12.562 0 1 0-19.411.637 12.563 12.563 0 0 0 17.091 1.683l6.481 6.483a1.633 1.633 0 0 0 1.159.48 1.628 1.628 0 0 0 1.159-.48 1.633 1.633 0 0 0 .48-1.159 1.628 1.628 0 0 0-.48-1.159l-.006-.004zM4.545 13.818a9.274 9.274 0 1 1 9.273 9.273c-2.459-.002-4.816-.98-6.554-2.719s-2.716-4.096-2.719-6.554z" />
        </symbol>
        <symbol id="icon-mastercard" viewBox="0 0 52 32">
            <path fill="#ff5f00" d="M32.54 3.697H18.813v24.667H32.54V3.697z" style="fill:var(--color6, #ff5f00)" />
            <path fill="#eb001b"
                d="M19.685 16.03a15.658 15.658 0 0 1 5.991-12.333 15.687 15.687 0 1 0 0 24.668 15.656 15.656 0 0 1-5.991-12.333z"
                style="fill:var(--color7, #eb001b)" />
            <path fill="#f79e1b"
                d="M51.058 16.03a15.684 15.684 0 0 1-8.831 14.11 15.694 15.694 0 0 1-16.55-1.776c1.867-1.468 3.377-3.341 4.414-5.478s1.577-4.481 1.577-6.856a15.691 15.691 0 0 0-5.991-12.334 15.684 15.684 0 0 1 16.55-1.776 15.683 15.683 0 0 1 8.831 14.11zM49.561 25.751v-.505h.204v-.103h-.519v.103h.204v.505h.111zm1.007 0v-.609h-.159l-.183.419-.183-.419h-.159v.609h.112v-.459l.171.396h.116l.172-.397v.46h.112z"
                style="fill:var(--color8, #f79e1b)" />
        </symbol>
        <symbol id="icon-message" viewBox="0 0 44 32">
            <path
                d="M40 .25H4A2.25 2.25 0 0 0 1.75 2.5V28a3.752 3.752 0 0 0 3.75 3.75h33A3.752 3.752 0 0 0 42.25 28V2.5A2.25 2.25 0 0 0 40 .25zM22 15.947 9.784 4.75h24.431L21.999 15.947zM15.398 16 6.25 24.385V7.615L15.398 16zm3.33 3.052 1.751 1.607a2.25 2.25 0 0 0 3.042 0l1.751-1.607 8.944 8.198H9.785l8.944-8.197zM28.602 16l9.148-8.385v16.77L28.602 16z" />
        </symbol>
        <symbol id="icon-paypal" viewBox="0 0 112 32">
            <path fill="#253b80"
                d="M14.162 2.067h-8.6c-.588 0-1.089.428-1.181 1.008L.903 25.125a.716.716 0 0 0 .709.827h4.106c.588 0 1.089-.428 1.181-1.01l.938-5.947c.09-.582.592-1.01 1.18-1.01h2.722c5.665 0 8.934-2.741 9.789-8.173.385-2.376.016-4.244-1.097-5.552-1.222-1.435-3.39-2.195-6.269-2.195zm.992 8.054c-.47 3.086-2.828 3.086-5.108 3.086H8.748l.91-5.763a.717.717 0 0 1 .708-.605h.595c1.553 0 3.018 0 3.775.885.451.528.589 1.313.417 2.397zm24.716-.099h-4.118a.718.718 0 0 0-.708.605l-.182 1.152-.288-.417c-.892-1.294-2.879-1.726-4.864-1.726-4.551 0-8.438 3.446-9.195 8.281-.393 2.411.166 4.717 1.534 6.325 1.255 1.479 3.051 2.095 5.187 2.095 3.667 0 5.701-2.358 5.701-2.358l-.184 1.145a.717.717 0 0 0 .707.83h3.71c.59 0 1.088-.428 1.181-1.01l2.226-14.094a.713.713 0 0 0-.705-.827zm-5.741 8.014c-.397 2.352-2.265 3.932-4.646 3.932-1.196 0-2.152-.383-2.765-1.11-.609-.722-.84-1.749-.647-2.893.371-2.333 2.27-3.963 4.615-3.963 1.169 0 2.12.388 2.746 1.121.627.741.876 1.774.697 2.913zm23.536-8.015h4.139c.58 0 .918.65.588 1.125L48.628 31.012c-.223.322-.59.513-.982.513h-4.133a.717.717 0 0 1-.585-1.132l4.286-6.049-4.558-13.376a.717.717 0 0 1 .68-.948h4.067c.529 0 .995.347 1.147.852l2.419 8.079 5.708-8.407a1.2 1.2 0 0 1 .989-.524z"
                style="fill:var(--color9, #253b80)" />
            <path fill="#179bd7"
                d="m102.537 25.124 3.53-22.454a.718.718 0 0 1 .707-.606h3.973c.439 0 .776.393.707.829l-3.481 22.049a1.193 1.193 0 0 1-1.18 1.01h-3.549a.715.715 0 0 1-.707-.827zM75.507 2.065h-8.602c-.587 0-1.088.428-1.18 1.008l-3.478 22.05a.715.715 0 0 0 .707.827h4.413c.41 0 .761-.299.825-.706l.987-6.25a1.194 1.194 0 0 1 1.18-1.01h2.721c5.666 0 8.935-2.741 9.79-8.173.386-2.376.015-4.244-1.098-5.552-1.221-1.435-3.388-2.195-6.266-2.195zm.992 8.054c-.469 3.086-2.827 3.086-5.108 3.086h-1.297l.912-5.763a.714.714 0 0 1 .707-.605h.595c1.552 0 3.019 0 3.775.885.452.528.589 1.313.417 2.397zm24.713-.099h-4.116a.714.714 0 0 0-.707.605l-.182 1.152-.289-.417c-.892-1.294-2.878-1.726-4.862-1.726-4.551 0-8.437 3.446-9.194 8.281-.392 2.411.164 4.717 1.533 6.325 1.257 1.479 3.051 2.095 5.187 2.095 3.667 0 5.7-2.358 5.7-2.358l-.183 1.145a.717.717 0 0 0 .709.83h3.708c.587 0 1.088-.428 1.18-1.01l2.227-14.094a.717.717 0 0 0-.71-.827zm-5.74 8.015c-.395 2.352-2.265 3.932-4.647 3.932-1.194 0-2.152-.383-2.765-1.11-.609-.721-.837-1.749-.646-2.893.373-2.333 2.27-3.963 4.615-3.963 1.17 0 2.12.388 2.747 1.121.629.741.879 1.774.697 2.913z"
                style="fill:var(--color10, #179bd7)" />
        </symbol>
        <symbol id="icon-prada" viewBox="0 0 195 32">
            <path stroke-miterlimit="2.613" stroke-width="1.024"
                d="M.482.902 25.618.831c3.834.69 7.137 4.16 7.198 9.569-.192 5.582-4.191 8.343-8.081 9.638l-12.833-.07.249 8.716 2.399 2.914-13.309-.02 2.173-3.167V4.209L.482.902zM11.427 2.45v15.548l9.846.071c2.24-1.807 3.939-3.19 3.871-7.528-.032-3.537-.779-6.621-4.075-8.091l-9.642-.001zM38.975.725 64.11.655c3.835.69 7.138 4.16 7.198 9.568-.193 5.582-4.191 8.343-8.081 9.638l-9.792-.053 3.064 2.61h8.694l10.415 9.008-11.411.093-13.75-11.728h-.053l.249 8.716 2.399 2.914-13.309-.019 2.173-3.168V4.032L38.974.724zm10.944 1.548v15.548l9.846.071c2.241-1.807 3.939-3.19 3.871-7.529-.032-3.536-.779-6.621-4.075-8.091h-9.642zM86.595.691l1.847.764 4.332 5.779v1.478L82.522 30.311l-2.717.844 6.247.141-1.019-.985c-.521-.815.181-1.313.272-1.969l2.716-5.77 12.698-.071 3.735 5.981.136 2.064-2.174.68h14.464c-1.291-.939-3.224-.674-3.871-2.815L98.071.691H86.595zm2.229 19.907 5.274-9.985 5.491 9.929-10.765.056zM164.197.751l1.847.764 4.332 5.778v1.479l-10.253 21.599-2.716.844 6.246.141-1.019-.985c-.52-.815.181-1.313.272-1.971l2.716-5.768 12.698-.071 3.735 5.979.136 2.064-2.174.681h14.465c-1.291-.939-3.225-.674-3.871-2.815L175.672.75h-11.475zm2.228 19.908 5.274-9.985 5.492 9.928-10.766.058zM120.849.402l20.443.113c6.583 1.542 10.772 5.564 12.071 12.58l-.055 5.472c-1.2 6.252-5.133 10.565-12.07 12.749l-20.498.058-.003-.662c3.116-.235 3.365-.591 3.373-2.441V3.336c-.035-1.368-.308-2.219-3.316-2.313l.055-.62zm11.62 2.134-.019 26.978c2.696.009 5.035.262 6.356-.413 2.995-1.368 4.385-3.468 4.513-5.441l-.072-15.93c.001-2.548-2.765-4.347-4.362-4.816-1.142-.423-3.42-.441-6.416-.378z" />
        </symbol>
        <symbol id="icon-right-arrow" viewBox="0 0 40 32">
            <path
                d="m24.592.908 13.5 13.5a2.248 2.248 0 0 1 0 3.188l-13.5 13.5a2.253 2.253 0 1 1-3.188-3.188l9.658-9.658H3.499a2.25 2.25 0 1 1 0-4.5h27.563l-9.66-9.658A2.253 2.253 0 1 1 24.59.904l.002.004z" />
        </symbol>
        <symbol id="icon-star" viewBox="0 0 32 32">
            <path
                d="M16 0c.543 8.602 7.398 15.457 16 16-8.602.543-15.457 7.398-16 16-.543-8.602-7.398-15.457-16-16 8.602-.543 15.457-7.398 16-16z" />
        </symbol>
        <symbol id="icon-cart" viewBox="0 0 33 32">
            <path
                d="M13.636 28a2.724 2.724 0 0 1-1.684 2.52 2.733 2.733 0 0 1-2.972-.591 2.725 2.725 0 0 1 .413-4.196 2.724 2.724 0 0 1 3.443.339A2.73 2.73 0 0 1 13.635 28zm11.455-2.727a2.724 2.724 0 0 0-2.52 1.684 2.733 2.733 0 0 0 .591 2.972 2.725 2.725 0 0 0 4.196-.414 2.724 2.724 0 0 0-.339-3.443 2.73 2.73 0 0 0-1.928-.799zM32.11 8.845 28.389 20.94a3.804 3.804 0 0 1-3.651 2.696H11.309a3.84 3.84 0 0 1-3.672-2.769L2.975 4.546H1.637a1.636 1.636 0 1 1 0-3.272h1.748a2.731 2.731 0 0 1 2.622 1.978l.994 3.476h23.545a1.638 1.638 0 0 1 1.613 1.361 1.64 1.64 0 0 1-.049.756zM28.33 10H7.935l2.849 9.968a.55.55 0 0 0 .525.396h13.429a.551.551 0 0 0 .523-.384l3.07-9.979z" />
        </symbol>
        <symbol id="icon-facebook" viewBox="0 0 20 32">
            <path
                d="M6.668 30.286v-13.67h-4.6v-5.328h4.6V7.359C6.668 2.8 9.453.317 13.52.317c1.948 0 3.623.145 4.111.21v4.765l-2.821.001c-2.212 0-2.64 1.051-2.64 2.594v3.401h5.276l-.687 5.328H12.17v13.67H6.668z" />
        </symbol>
        <symbol id="icon-github" viewBox="0 0 34 32">
            <path
                d="M16.263.558A15.913 15.913 0 0 0 .312 16.509c0 7.045 4.586 13.026 10.899 15.153.798.133 1.063-.332 1.063-.798v-2.725c-4.453.997-5.383-2.127-5.383-2.127-.731-1.861-1.794-2.326-1.794-2.326-1.462-.997.133-.997.133-.997 1.595.133 2.459 1.662 2.459 1.662 1.396 2.459 3.722 1.728 4.652 1.329.133-1.063.532-1.728.997-2.127-3.522-.399-7.244-1.794-7.244-7.909 0-1.728.598-3.19 1.662-4.253-.133-.399-.731-1.994.133-4.253 0 0 1.329-.399 4.386 1.662 1.263-.332 2.658-.532 3.988-.532s2.725.199 3.988.532c3.057-2.06 4.386-1.662 4.386-1.662.864 2.193.332 3.788.133 4.253.997 1.13 1.662 2.526 1.662 4.253 0 6.114-3.722 7.444-7.311 7.842.598.465 1.063 1.462 1.063 2.924v4.386c0 .399.266.93 1.13.798 6.314-2.06 10.899-8.042 10.899-15.087A15.913 15.913 0 0 0 16.263.556z" />
        </symbol>
        <symbol id="icon-twitter" viewBox="0 0 38 32">
            <path
                d="M35.863 6.346c-1.341.596-2.756.968-4.246 1.192 1.49-.894 2.682-2.309 3.203-4.023-1.415.819-2.98 1.415-4.693 1.788a7.428 7.428 0 0 0-5.364-2.309c-4.023 0-7.3 3.278-7.3 7.3 0 .596.075 1.117.224 1.639C11.653 11.635 6.215 8.73 2.565 4.26c-.596 1.117-.968 2.309-.968 3.65a7.291 7.291 0 0 0 3.278 6.108 8.618 8.618 0 0 1-3.352-.894v.075c0 3.576 2.533 6.555 5.885 7.226a8.118 8.118 0 0 1-1.937.223c-.447 0-.968-.075-1.415-.149.968 2.905 3.65 5.066 6.853 5.066-2.533 1.937-5.661 3.129-9.088 3.129-.596 0-1.192 0-1.713-.075a20.729 20.729 0 0 0 11.248 3.278c13.483 0 20.858-11.174 20.858-20.858v-.968a13.37 13.37 0 0 0 3.65-3.725z" />
        </symbol>
        <symbol id="icon-versace" viewBox="0 0 157 32">
            <path
                d="M141.345.617h15.344v2.445a4.363 4.363 0 0 0-1.383-.228h-8.82v11.424h8.58c.616 0 1.165-.068 1.622-.183v2.434c-.389-.091-.924-.137-1.588-.137h-8.614v11.813h8.556a7.12 7.12 0 0 0 1.645-.217v2.628h-15.32c.122-.462.184-.938.184-1.416V2.068c0-.594-.069-1.085-.206-1.451zm-3.552 7.78-4.433-.034c-.217-2.491-1.645-4.903-4.787-5.347-6.729-.606-8.626 6.785-8.455 12.19.172 5.209 1.005 13.218 7.952 13.218 2.914 0 5.712-2.994 5.621-5.518l4.102-.034c-.297 5.209-6.272 8.225-9.117 8.328-9.721.332-13.79-6.147-13.995-15.39-.183-8.373 3.245-15.811 12.853-15.811 8.226.115 9.814 4.982 10.26 8.397zM68.65 27.191l2.937-2.456c1.53 2.525 2.787 3.678 5.826 3.678 3.084 0 5.678-1.873 5.678-5.186 0-1.634-.663-2.971-1.977-3.976-.595-.469-2.103-1.28-4.479-2.411-3.553-1.702-7.014-3.919-7.014-8.374 0-5.621 4.775-8.101 9.813-8.284 2.982-.114 6.684 1.532 8.18 3.382L84.632 5.86a6.232 6.232 0 0 0-5.484-3.289c-3.805 0-6.821 4.41-3.668 7.449.799.777 2.434 1.736 4.925 2.878 3.975 1.863 7.368 4.09 7.368 9.014 0 1.702-.446 3.29-1.325 4.741-1.77 2.925-4.73 4.387-8.865 4.387-4.753 0-5.689-1.085-8.935-3.851zM26.813.617h15.331v2.445a4.357 4.357 0 0 0-1.382-.228h-8.819v11.424h8.58c.617 0 1.166-.068 1.622-.183v2.434c-.389-.091-.925-.137-1.576-.137h-8.626v11.813H40.5c.468 0 1.029-.068 1.645-.217v2.628H26.837c.112-.464.169-.939.171-1.416V2.068c0-.594-.069-1.085-.194-1.451zM0 .617h5.575v.275c0 .251.08.582.217 1.005l7.859 23.66 8.066-23.764c.125-.399.194-.788.194-1.177h2.708c-.274.48-.48.903-.606 1.28l-9.209 27.477c-.091.263-.171.674-.239 1.223h-4.57a7.71 7.71 0 0 0-.308-1.223L.662 2.113A45.122 45.122 0 0 0 .01.616h-.011zm59.214 15.63c3.656-.72 6.455-3.519 6.455-7.518 0-5.245-4.387-8.113-9.3-8.113h-8.98c.125.458.194.937.194 1.44v27.099c0 .583-.069 1.074-.194 1.44h5.347a5.269 5.269 0 0 1-.194-1.44V16.703l1.713.183 8.958 13.709h5.381l-9.38-14.349zm-.926-2.285c-.971.685-2.137 1.027-3.473 1.027H52.53V2.801h2.045c1.749 0 3.108.433 4.079 1.301 1.325 1.201 1.999 2.823 1.999 4.856 0 2.194-.789 3.862-2.365 5.004zm55.501 15.389-9.984-27.739a3.628 3.628 0 0 1-.195-.994h-4.319c0 .354-.057.731-.195 1.108L89.42 29.352a5.476 5.476 0 0 1-.606 1.245h2.787c-.011-.457.046-.88.172-1.245l2.866-8.147h11.025l2.834 8.147c.149.444.216.856.216 1.244h5.782c-.332-.468-.571-.891-.709-1.245zM95.396 18.999l4.661-13.538 4.788 13.538h-9.448z" />
        </symbol>
        <symbol id="icon-visa" viewBox="0 0 91 32">
            <path fill="#1434cb"
                d="m45.392 2.989-5.798 27.103h-7.011l5.799-27.103h7.01zM74.89 20.49l3.691-10.178 2.124 10.178H74.89zm7.823 9.602h6.485L83.539 2.989h-5.986c-1.345 0-2.48.782-2.985 1.988L64.05 30.091h7.363l1.462-4.047h8.995l.844 4.047zm-18.299-8.849c.03-7.153-9.892-7.547-9.824-10.742.021-.974.948-2.006 2.973-2.271 1.006-.131 3.773-.232 6.914 1.214l1.23-5.747c-1.687-.612-3.858-1.202-6.559-1.202-6.929 0-11.807 3.684-11.848 8.96-.044 3.901 3.482 6.078 6.138 7.376 2.731 1.329 3.649 2.18 3.637 3.368-.018 1.819-2.179 2.621-4.195 2.652-3.526.056-5.571-.951-7.202-1.711l-1.27 5.939c1.638.752 4.661 1.406 7.798 1.439 7.364 0 12.183-3.639 12.207-9.273zM35.374 2.989 24.015 30.092h-7.412l-5.59-21.63c-.34-1.332-.635-1.819-1.667-2.381-1.684-.914-4.468-1.772-6.917-2.304l.167-.788h11.93c1.52 0 2.888 1.012 3.233 2.763l2.953 15.684 7.296-18.447h7.366z"
                style="fill:var(--color11, #1434cb)" />
        </symbol>
        <symbol id="icon-zara" viewBox="0 0 77 32">
            <path
                d="M73.107 31.047 61.746.007h-.224l-6.594 17.979-.01-.009c-1.475-1.292-3.556-2.099-6.178-2.4l-.799-.082.793-.101c4.322-.771 7.228-3.48 7.228-6.744 0-4.476-4.242-7.6-10.319-7.6H33v.227h3.674v23.127L27.744.006h-.224l-11.356 30.96-.055.006a9.287 9.287 0 0 1-.457.045 8.563 8.563 0 0 1-.679.028H5.862L23.31 1.052H2.127v9.209h.225c.04-4.486 2.672-8.985 8.489-8.985h7.017L.407 31.269h23.509v-8.823h-.225c-.031 3.91-2.264 7.623-7.121 8.462l-.154.026 3.699-10.089h10.361l3.733 10.201h-3.683v.223h14.455v-.223h-3.699V15.659h4.268c4.343 0 6.834 1.925 6.834 5.281v2.73c0 .301.021.74.043 1.108v.013l-2.294 6.254h-2.997v.223h6.203v-.223h-2.964l2.089-5.695.006.088.058.513.056.339c.349 2.1 1.158 3.644 2.405 4.588l.179.129c.947.654 2.125.985 3.501.985 1.823 0 3.039-.451 4.042-1.513l-.132-.123c-.925.847-1.701 1.19-2.673 1.19-1.657 0-2.524-1.994-2.524-3.96v-3.824a8.526 8.526 0 0 0-.443-2.793l-.041-.119v-.004h7.579l3.733 10.201h-3.683v.223h12.509v-.223l-3.931-.001zM20.196 20.623 25.3 6.707l5.093 13.916H20.196zm21.089-5.187V1.277h3.258c4.352 0 6.649 2.567 6.649 7.421 0 5.163-1.319 6.737-5.641 6.737h-4.266zm15.525 5.187-.022-.055a6.897 6.897 0 0 0-1.445-2.188l-.213-.212-.023-.021 4.192-11.44 5.093 13.916H56.81z" />
        </symbol>
        <symbol id="icon-a-pay" viewBox="0 0 75 32">
            <path
                d="M15.786 5.551c.829-1.037 1.392-2.43 1.244-3.853-1.214.06-2.695.801-3.553 1.839-.77.889-1.452 2.34-1.274 3.704 1.363.118 2.724-.681 3.583-1.689zM17.015 7.507c-1.979-.118-3.662 1.123-4.607 1.123S10.015 7.566 8.45 7.595c-2.037.03-3.928 1.182-4.962 3.014-2.127 3.665-.561 9.102 1.507 12.087 1.004 1.477 2.215 3.103 3.809 3.044 1.507-.059 2.097-.976 3.929-.976 1.83 0 2.362.976 3.957.946 1.654-.03 2.688-1.478 3.692-2.956 1.152-1.684 1.624-3.309 1.653-3.398-.03-.03-3.189-1.242-3.219-4.876-.03-3.043 2.481-4.491 2.599-4.581-1.418-2.097-3.633-2.333-4.401-2.393zM34.247 3.388c4.302 0 7.297 2.965 7.297 7.282 0 4.332-3.057 7.313-7.405 7.313h-4.763v7.574h-3.441V3.388h8.311zm-4.871 11.706h3.948c2.996 0 4.701-1.613 4.701-4.409s-1.705-4.394-4.686-4.394h-3.964v8.803zM42.442 20.963c0-2.827 2.166-4.563 6.007-4.778l4.424-.261V14.68c0-1.798-1.214-2.873-3.241-2.873-1.921 0-3.119.922-3.411 2.366h-3.134c.184-2.919 2.673-5.07 6.667-5.07 3.918 0 6.422 2.074 6.422 5.316v11.138h-3.18v-2.658h-.077c-.937 1.798-2.98 2.934-5.1 2.934-3.165 0-5.377-1.966-5.377-4.87zm10.432-1.459v-1.275l-3.979.246c-1.982.138-3.103 1.014-3.103 2.397 0 1.413 1.167 2.335 2.95 2.335 2.319 0 4.133-1.598 4.133-3.702zM59.179 31.502v-2.689c.245.061.798.061 1.075.061 1.536 0 2.366-.645 2.873-2.304 0-.031.292-.983.292-.999L57.581 9.394h3.594l4.087 13.151h.061L69.41 9.394h3.503l-6.054 17.007c-1.382 3.918-2.98 5.178-6.329 5.178-.277 0-1.106-.031-1.352-.077z" />
        </symbol>
        <symbol id="icon-minus" viewBox="0 0 160 32">
            <path
                d="M155 16c0 2.387-0.948 4.676-2.636 6.364s-3.977 2.636-6.364 2.636h-132c-2.387 0-4.676-0.948-6.364-2.636s-2.636-3.977-2.636-6.364 0.948-4.676 2.636-6.364c1.688-1.688 3.977-2.636 6.364-2.636h132c2.387 0 4.676 0.948 6.364 2.636s2.636 3.977 2.636 6.364z">
            </path>
        </symbol>
        <symbol id="icon-plus" viewBox="0 0 32 32">
            <path
                d="M31 16c0 0.477-0.19 0.935-0.527 1.273s-0.795 0.527-1.273 0.527h-11.4v11.4c0 0.477-0.19 0.935-0.527 1.273s-0.795 0.527-1.273 0.527c-0.477 0-0.935-0.19-1.273-0.527s-0.527-0.795-0.527-1.273v-11.4h-11.4c-0.477 0-0.935-0.19-1.273-0.527s-0.527-0.795-0.527-1.273c0-0.477 0.19-0.935 0.527-1.273s0.795-0.527 1.273-0.527h11.4v-11.4c0-0.477 0.19-0.935 0.527-1.273s0.795-0.527 1.273-0.527c0.477 0 0.935 0.19 1.273 0.527s0.527 0.795 0.527 1.273v11.4h11.4c0.477 0 0.935 0.19 1.273 0.527s0.527 0.795 0.527 1.273z">
            </path>
        </symbol>
        <symbol id="icon-settings" viewBox="0 0 35 32">
            <path
                d="M19.4 15.4v13.8c0 0.477-0.19 0.935-0.527 1.273s-0.795 0.527-1.273 0.527c-0.477 0-0.935-0.19-1.273-0.527s-0.527-0.795-0.527-1.273v-13.8c0-0.477 0.19-0.935 0.527-1.273s0.795-0.527 1.273-0.527 0.935 0.19 1.273 0.527c0.338 0.338 0.527 0.795 0.527 1.273zM28.4 25.6c-0.477 0-0.935 0.19-1.273 0.527s-0.527 0.795-0.527 1.273v1.8c0 0.477 0.19 0.935 0.527 1.273s0.795 0.527 1.273 0.527c0.477 0 0.935-0.19 1.273-0.527s0.527-0.795 0.527-1.273v-1.8c0-0.477-0.19-0.935-0.527-1.273s-0.795-0.527-1.273-0.527zM32 19.6h-1.8v-16.8c0-0.477-0.19-0.935-0.527-1.273s-0.795-0.527-1.273-0.527c-0.477 0-0.935 0.19-1.273 0.527s-0.527 0.795-0.527 1.273v16.8h-1.8c-0.477 0-0.935 0.19-1.273 0.527s-0.527 0.795-0.527 1.273c0 0.477 0.19 0.935 0.527 1.273s0.795 0.527 1.273 0.527h7.2c0.477 0 0.935-0.19 1.273-0.527s0.527-0.795 0.527-1.273c0-0.477-0.19-0.935-0.527-1.273s-0.795-0.527-1.273-0.527zM6.8 20.8c-0.477 0-0.935 0.19-1.273 0.527s-0.527 0.795-0.527 1.273v6.6c0 0.477 0.19 0.935 0.527 1.273s0.795 0.527 1.273 0.527c0.477 0 0.935-0.19 1.273-0.527s0.527-0.795 0.527-1.273v-6.6c0-0.477-0.19-0.935-0.527-1.273s-0.795-0.527-1.273-0.527zM10.4 14.8h-1.8v-12c0-0.477-0.19-0.935-0.527-1.273s-0.795-0.527-1.273-0.527c-0.477 0-0.935 0.19-1.273 0.527s-0.527 0.795-0.527 1.273v12h-1.8c-0.477 0-0.935 0.19-1.273 0.527s-0.527 0.795-0.527 1.273c0 0.477 0.19 0.935 0.527 1.273s0.795 0.527 1.273 0.527h7.2c0.477 0 0.935-0.19 1.273-0.527s0.527-0.795 0.527-1.273c0-0.477-0.19-0.935-0.527-1.273s-0.795-0.527-1.273-0.527zM21.2 7.6h-1.8v-4.8c0-0.477-0.19-0.935-0.527-1.273s-0.795-0.527-1.273-0.527c-0.477 0-0.935 0.19-1.273 0.527s-0.527 0.795-0.527 1.273v4.8h-1.8c-0.477 0-0.935 0.19-1.273 0.527s-0.527 0.795-0.527 1.273c0 0.477 0.19 0.935 0.527 1.273s0.795 0.527 1.273 0.527h7.2c0.477 0 0.935-0.19 1.273-0.527s0.527-0.795 0.527-1.273c0-0.477-0.19-0.935-0.527-1.273s-0.795-0.527-1.273-0.527z">
            </path>
        </symbol>
        <symbol id="icon-arrow-right-links" viewBox="0 0 19 32">
            <path
                d="M4.082 1.252l13.333 13.333c0.186 0.186 0.334 0.407 0.435 0.65s0.153 0.504 0.153 0.767c0 0.263-0.052 0.524-0.153 0.767s-0.249 0.464-0.435 0.65l-13.333 13.333c-0.376 0.376-0.885 0.587-1.417 0.587s-1.041-0.211-1.417-0.587c-0.376-0.376-0.587-0.885-0.587-1.417s0.211-1.041 0.587-1.417l11.918-11.918-11.92-11.918c-0.376-0.376-0.587-0.885-0.587-1.417s0.211-1.041 0.587-1.417c0.376-0.376 0.885-0.587 1.417-0.587s1.041 0.211 1.417 0.587l0.002 0.003z">
            </path>
        </symbol>
        <symbol id="icon-tree-dots" viewBox="0 0 117 32">
            <path
                d="M72.667 16c0 2.769-0.821 5.476-2.359 7.778s-3.725 4.097-6.283 5.156c-2.558 1.060-5.373 1.337-8.089 0.797s-5.21-1.874-7.168-3.831c-1.958-1.958-3.291-4.453-3.832-7.168s-0.263-5.531 0.797-8.089c1.060-2.558 2.854-4.745 5.156-6.283s5.009-2.359 7.778-2.359c3.713 0 7.274 1.475 9.9 4.1s4.1 6.187 4.1 9.9zM18.667 2c-2.769 0-5.476 0.821-7.778 2.359s-4.097 3.725-5.156 6.283c-1.060 2.558-1.337 5.373-0.797 8.089s1.874 5.21 3.832 7.168c1.958 1.958 4.452 3.291 7.168 3.831s5.531 0.263 8.089-0.797c2.558-1.060 4.745-2.854 6.283-5.156s2.359-5.009 2.359-7.778c0-3.713-1.475-7.274-4.1-9.9s-6.186-4.1-9.9-4.1zM98.667 2c-2.769 0-5.476 0.821-7.778 2.359s-4.097 3.725-5.156 6.283c-1.060 2.558-1.337 5.373-0.797 8.089s1.874 5.21 3.831 7.168c1.958 1.958 4.453 3.291 7.169 3.831s5.531 0.263 8.089-0.797c2.558-1.060 4.745-2.854 6.283-5.156s2.359-5.009 2.359-7.778c0-1.838-0.362-3.659-1.066-5.358s-1.735-3.242-3.035-4.542c-1.3-1.3-2.844-2.331-4.542-3.035s-3.519-1.066-5.357-1.066z">
            </path>
        </symbol>
        <symbol id="icon-basket" viewBox="0 0 29 32">
            <path
                d="M27.6 5.6h-6v-1.2c0-0.955-0.379-1.87-1.054-2.546s-1.591-1.054-2.546-1.054h-7.2c-0.955 0-1.87 0.379-2.546 1.054s-1.054 1.591-1.054 2.546v1.2h-6c-0.318 0-0.624 0.126-0.849 0.351s-0.351 0.53-0.351 0.849c0 0.318 0.126 0.623 0.351 0.849s0.53 0.351 0.849 0.351h1.2v21.6c0 0.636 0.253 1.247 0.703 1.697s1.061 0.703 1.697 0.703h19.2c0.636 0 1.247-0.253 1.697-0.703s0.703-1.061 0.703-1.697v-21.6h1.2c0.318 0 0.624-0.126 0.848-0.351s0.352-0.53 0.352-0.849-0.126-0.623-0.352-0.849c-0.225-0.225-0.53-0.351-0.848-0.351zM12 23.6c0 0.318-0.126 0.624-0.351 0.848s-0.53 0.352-0.849 0.352-0.623-0.126-0.849-0.352c-0.225-0.225-0.351-0.53-0.351-0.848v-9.6c0-0.318 0.126-0.623 0.351-0.849s0.53-0.351 0.849-0.351c0.318 0 0.623 0.126 0.849 0.351s0.351 0.53 0.351 0.849v9.6zM19.2 23.6c0 0.318-0.126 0.624-0.352 0.848s-0.53 0.352-0.848 0.352-0.624-0.126-0.848-0.352c-0.225-0.225-0.352-0.53-0.352-0.848v-9.6c0-0.318 0.126-0.623 0.352-0.849s0.53-0.351 0.848-0.351 0.624 0.126 0.848 0.351c0.225 0.225 0.352 0.53 0.352 0.849v9.6zM19.2 5.6h-9.6v-1.2c0-0.318 0.126-0.623 0.351-0.849s0.53-0.351 0.849-0.351h7.2c0.318 0 0.624 0.126 0.848 0.351s0.352 0.53 0.352 0.849v1.2z">
            </path>
        </symbol>
        <symbol id="icon-ticket" viewBox="0 0 32 32">
            <path
                d="M30.657 15.252l-13.544-13.544c-0.253-0.254-0.553-0.456-0.884-0.593s-0.686-0.207-1.044-0.206h-12.64c-0.434 0-0.85 0.172-1.157 0.479s-0.479 0.723-0.479 1.157v12.64c-0.001 0.358 0.069 0.713 0.206 1.044s0.339 0.632 0.593 0.884l13.544 13.544c0.511 0.511 1.205 0.799 1.928 0.799s1.417-0.287 1.928-0.799l11.549-11.549c0.511-0.511 0.798-1.205 0.798-1.928s-0.287-1.417-0.798-1.928zM17.18 27.957l-12.998-13.002v-10.773h10.773l12.998 12.998-10.773 10.777zM10.727 8.546c0 0.432-0.128 0.853-0.368 1.212s-0.581 0.638-0.979 0.804c-0.399 0.165-0.837 0.208-1.261 0.124s-0.812-0.292-1.117-0.597c-0.305-0.305-0.513-0.694-0.597-1.117s-0.041-0.862 0.124-1.261c0.165-0.399 0.445-0.739 0.804-0.979s0.781-0.368 1.212-0.368c0.579 0 1.134 0.23 1.543 0.639s0.639 0.964 0.639 1.543z">
            </path>
        </symbol>
        <symbol id="icon-up-arrow" viewBox="0 0 48 32">
            <path 
            d="M1.878 23.878l20-20c0.279-0.28 0.61-0.502 0.975-0.653s0.756-0.229 1.15-0.229 0.786 0.078 1.15 0.229c0.365 0.151 0.696 0.373 0.975 0.653l20 20c0.564 0.564 0.88 1.328 0.88 2.125s-0.317 1.561-0.88 2.125c-0.564 0.564-1.328 0.88-2.125 0.88s-1.562-0.317-2.125-0.88l-17.877-17.878-17.878 17.88c-0.564 0.564-1.328 0.88-2.125 0.88s-1.561-0.317-2.125-0.88c-0.564-0.564-0.88-1.328-0.88-2.125s0.317-1.561 0.88-2.125l0.005-0.002z">
            </path>
        </symbol>
    </defs>
</svg>